<svg xmlns="http://www.w3.org/2000/svg" width="213" height="51" viewBox="0 0 213 51">
    <g fill="none" fill-rule="evenodd">
        <path fill="#FFF" d="M.845.004h211.362l-25.23 43.7a14.64 14.64 0 0 1-11.407 7.263H37.482a14.64 14.64 0 0 1-11.407-7.263L.845.004z"/>
        <path fill="#F28700" d="M76.385 19.448a.85.85 0 0 1-.118-.009l-11.754-1.713c-.59-.09-1.07-.692-1.07-1.342v-4.71c0-.508.288-.849.716-.849a.9.9 0 0 1 .284.049l11.802 3.791c.504.165.93.813.93 1.415v2.429c0 .535-.34.939-.79.939M64.366 26.998c-.542 0-.923-.425-.923-1.024v-4.682c0-.6.425-1.069.968-1.069.027 0 .055.001.084.004l11.744.992c.516.046.935.573.935 1.175v2.427c0 .603-.419 1.13-.935 1.175l-11.79.998a.968.968 0 0 1-.083.004M64.16 36.39c-.43 0-.717-.34-.717-.847v-4.717c0-.652.48-1.254 1.07-1.342l11.755-1.708a.753.753 0 0 1 .116-.008c.45 0 .79.403.79.94v2.427c0 .611-.417 1.246-.929 1.416l-11.802 3.792a.892.892 0 0 1-.283.047"/>
        <path fill="#26338C" d="M45.804 21.014c-.467 0-.806-.396-.806-.942v-.395c0-.652.454-1.42.992-1.676l14.83-7.09a.796.796 0 0 1 .34-.086c.344 0 .567.3.567.761v4.732c0 .653-.467 1.289-1.041 1.416l-14.688 3.258a.88.88 0 0 1-.194.022M60.82 27.004c-.038 0-.076-.003-.115-.008l-14.66-1.88c-.577-.072-1.047-.66-1.047-1.31v-.397c0-.65.47-1.237 1.048-1.31l14.659-1.878a.839.839 0 0 1 .117-.008c.516 0 .905.442.905 1.03v4.731c0 .287-.095.55-.266.74a.853.853 0 0 1-.64.29M61.16 36.39a.793.793 0 0 1-.341-.086L45.99 29.215c-.538-.257-.992-1.023-.992-1.675v-.398c0-.544.34-.94.805-.94.064 0 .13.007.195.022l14.687 3.257c.574.129 1.042.764 1.042 1.418v4.732c0 .235-.058.43-.165.566a.498.498 0 0 1-.402.193"/>
        <g fill="#26338C">
            <path d="M84.487 31.45h3.157V15.564h-3.157zM92.703 27.099c.223 1.599 1.033 2.388 2.631 2.388 1.275 0 2.246-.283 2.833-.587l.709 1.963c-.85.425-2.065.789-3.906.789-3.339 0-5.262-2.206-5.262-5.687 0-3.42 1.781-5.625 4.918-5.625 3.157 0 4.756 2.145 4.614 5.828l-6.537.93zm1.801-4.897c-1.295 0-2.104 1.113-2.003 3.36l3.804-.568c0-1.942-.647-2.792-1.801-2.792zM105.211 31.652c-3.156 0-4.776-1.173-4.776-3.44 0-2.813 2.813-3.643 6.091-3.946v-.506c0-1.133-.769-1.457-1.922-1.457-1.053 0-2.125.344-2.833.668l-.688-1.802c.769-.323 2.185-.83 4.108-.83 2.47 0 4.29 1.033 4.29 3.988v6.516c-.91.486-2.388.81-4.27.81zm1.315-5.929c-1.902.182-3.137.627-3.137 2.368 0 1.275.729 1.821 1.984 1.821.465 0 .87-.081 1.153-.223v-3.966zM114.419 31.632c-1.337 0-2.53-.344-3.198-.79l.81-2.002c.404.323 1.153.627 1.942.627.81 0 1.356-.506 1.356-1.194 0-.729-.385-1.134-1.397-1.539-2.002-.788-2.448-1.901-2.448-3.035 0-1.862 1.457-3.36 3.643-3.36 1.356 0 2.286.264 3.136.79l-.769 1.801a2.781 2.781 0 0 0-1.659-.566c-.83 0-1.255.506-1.255 1.133 0 .728.547 1.133 1.396 1.497 2.105.891 2.591 1.923 2.591 3.198 0 1.903-1.558 3.44-4.148 3.44M123.12 27.099c.222 1.599 1.031 2.388 2.63 2.388 1.275 0 2.246-.283 2.834-.587l.707 1.963c-.849.425-2.063.789-3.905.789-3.339 0-5.262-2.206-5.262-5.687 0-3.42 1.781-5.625 4.918-5.625 3.157 0 4.756 2.145 4.614 5.828l-6.537.93zm1.8-4.897c-1.295 0-2.104 1.113-2.003 3.36l3.805-.568c0-1.942-.648-2.792-1.802-2.792zM143.073 31.45h-2.914l-1.559-5.91c-.182-.728-.222-1.497-.222-1.497h-.02s-.04.769-.243 1.498l-1.599 5.909h-2.894l-2.995-10.908h3.137l1.316 6.294c.181.89.202 1.578.202 1.578h.04s.021-.667.264-1.578l1.659-6.294h2.59l1.559 6.294c.182.77.263 1.578.263 1.578h.04s.02-.809.202-1.598l1.396-6.274h2.772l-2.994 10.908zM150.014 27.099c.222 1.599 1.033 2.388 2.63 2.388 1.276 0 2.248-.283 2.834-.587l.709 1.963c-.85.425-2.064.789-3.906.789-3.34 0-5.262-2.206-5.262-5.687 0-3.42 1.78-5.625 4.917-5.625 3.158 0 4.756 2.145 4.615 5.828l-6.537.93zm1.801-4.897c-1.295 0-2.104 1.113-2.003 3.36l3.804-.568c0-1.942-.648-2.792-1.801-2.792zM162.5 31.652c-1.883 0-3.218-.343-3.947-.809v-15.28h3.157v5.242c.506-.242 1.073-.405 2.024-.405 2.57 0 4.35 2.064 4.35 5.282 0 3.825-2.003 5.97-5.584 5.97m.344-9.45c-.506 0-.83.081-1.134.242v7.144c.244.101.587.162.972.162 1.598 0 2.286-1.416 2.286-3.865 0-2.125-.445-3.683-2.124-3.683"/>
        </g>
    </g>
</svg>
